<?xml version="1.0"?>
<svg xmlns="http://www.w3.org/2000/svg" height="64px" viewBox="0 -16 512 512" width="64px"><path d="m166 180c-15 0-29.097656 3-42.597656 7.5 6.597656 38.699219 29.398437 71.699219 61.5 91.800781 7.199218-31.800781 23.398437-60 45.898437-82.199219-19.5-10.503906-41.398437-17.101562-64.800781-17.101562zm0 0" fill="#91DC5A"/><path d="m256 330c-15.300781 0-30-2.402344-44.097656-6.300781 2.398437 36.300781 18.898437 68.402343 44.097656 91.199219 25.199219-22.796876 41.699219-54.898438 44.097656-91.199219-14.097656 3.898437-28.796875 6.300781-44.097656 6.300781zm0 0" fill="#91DC5A"/><path d="m181.300781 312c-56.734375-29.15625-90-86.902344-90-144-53.703125 27.597656-91.300781 83.101562-91.300781 147 0 90.898438 75.097656 165 166 165 33.300781 0 64.199219-9.902344 90-27-58.722656-37.191406-82.90625-116.375-74.699219-141zm0 0" fill="#91DC5A"/><path d="m388.597656 187.5c-13.5-4.5-27.597656-7.5-42.597656-7.5-23.402344 0-45.300781 6.597656-64.800781 17.101562 22.5 22.199219 38.699219 50.398438 45.902343 82.199219 32.097657-20.101562 54.898438-53.101562 61.496094-91.800781zm0 0" fill="#91DC5A"/><path d="m256 300c15 0 29.097656-3 42.597656-7.5-5.097656-30.601562-20.398437-57.601562-42.597656-77.402344-22.199219 19.800782-37.5 46.800782-42.597656 77.402344 13.5 4.5 27.597656 7.5 42.597656 7.5zm0 0" fill="#91DC5A"/><path d="m420.699219 168c0 57.121094-33.289063 114.855469-90 144 8.816406 26.441406-17.867188 105.003906-74.699219 141 25.800781 17.097656 56.699219 27 90 27 90.902344 0 166-74.101562 166-165 0-63.898438-37.597656-119.402344-91.300781-147zm0 0" fill="#91DC5A"/><path d="m256 177c25.800781-17.101562 56.699219-27 90-27 22.769531 0 49.988281 5.644531 74.699219 18 .300781-.898438.300781-1.800781.300781-3 0-90.902344-74.097656-165-165-165s-165 74.097656-165 165c0 1.199219 0 2.101562.300781 3 24.605469-12.300781 51.8125-18 74.699219-18 33.300781 0 64.199219 9.898438 90 27zm0 0" fill="#91DC5A"/></svg>
